<svg width="16000" height="7071" viewBox="0 0 16000 7071" fill="none" xmlns="http://www.w3.org/2000/svg">
<path d="M10378.5 854.107C9930.6 257.687 9588.36 58.8804 9120.3 58.8804L6863.03 1C6863.03 1 3211.64 552.122 1457.67 1148.54C-296.306 1744.96 -1063.82 6043.21 2074.2 4623.89C5212.23 3204.56 7784.05 2301.12 5322.95 4329.45C2861.85 6357.78 6475.5 7120.29 8312.51 7067.45C10149.5 7014.6 8954.21 6083.48 10904.5 4520.71C12854.7 2957.94 15288.1 5698.45 15288.1 5698.45C15288.1 5698.45 16400.4 3931.84 15844.3 3400.85C15288.1 2869.86 14878 1981.52 13811 1422.85C12744 864.174 12137.5 1062.98 11370 1148.54C10602.5 1234.1 10826.5 1450.53 10378.5 854.107Z" stroke="#C7E7D7" stroke-width="2" stroke-dasharray="2 2"/>
</svg>
