<svg width="19483" height="16316" viewBox="0 0 19483 16316" fill="none" xmlns="http://www.w3.org/2000/svg">
<path d="M12666.9 1969.82C12123.9 593.388 11709 134.578 11141.5 134.578L8404.94 1C8404.94 1 3978.24 1272.89 1851.83 2649.32C-274.571 4025.76 -1205.06 13945.4 2599.28 10669.8C6403.61 7394.24 9521.53 5309.27 6537.85 9990.3C3554.17 14671.3 7935.13 16431.1 10162.2 16309.1C12389.3 16187.1 10940.1 14038.3 13304.5 10431.7C15668.9 6825.08 18619 13149.7 18619 13149.7C18619 13149.7 19967.4 9072.68 19293.2 7847.24C18619 6621.81 18121.7 4571.68 16828.2 3282.37C15534.6 1993.05 14799.4 2451.86 13868.9 2649.32C12938.4 2846.79 13209.9 3346.25 12666.9 1969.82Z" stroke="#C7E7D7" stroke-width="2" stroke-dasharray="2 2"/>
</svg>
